<svg width="74" height="74" viewBox="0 0 74 74" fill="none" xmlns="http://www.w3.org/2000/svg">
<path d="M4.97425 73.499C3.76221 74.5154 2.10183 72.9538 3.04209 71.6818L10.931 61.0114C21.1178 47.233 20.5362 28.2693 9.52431 15.1412L0.996294 4.97424C-0.0202896 3.76207 1.54128 2.10169 2.81347 3.04208L13.4839 10.931C27.2622 21.1177 46.2259 20.5361 59.354 9.5242L69.5209 0.99618C70.7331 -0.0204036 72.3934 1.54117 71.4531 2.81335L63.5641 13.4838C53.3775 27.262 53.9591 46.2257 64.971 59.354L73.4991 69.5209C74.5155 70.7329 72.9539 72.3933 71.6819 71.453L61.0115 63.5641C47.2331 53.3773 28.2694 53.959 15.1412 64.9709L4.97425 73.499Z" fill="#8482E7"/>
</svg>
